<svg xmlns="http://www.w3.org/2000/svg" viewBox="0 0 275.9 555.53"><defs><style>.cls-1,.cls-2{fill:none;stroke:#1d1d1b;}.cls-1,.cls-2,.cls-3{stroke-miterlimit:10;}.cls-2,.cls-3{stroke-width:5px;}.cls-3{fill:#f0f0b0;stroke:#812f33;}</style></defs><title>J logo</title><g id="Capa_2" data-name="Capa 2"><path class="cls-1" d="M298.44,313.5" transform="translate(-44.04 -38.5)"/><path class="cls-1" d="M227.94,398.82" transform="translate(-44.04 -38.5)"/><path class="cls-1" d="M231.71,392.65" transform="translate(-44.04 -38.5)"/><path class="cls-1" d="M265.67,278.21" transform="translate(-44.04 -38.5)"/><path class="cls-1" d="M204.31,188.93" transform="translate(-44.04 -38.5)"/><path class="cls-2" d="M324.89,280.4" transform="translate(-44.04 -38.5)"/><path class="cls-2" d="M202.63,399" transform="translate(-44.04 -38.5)"/><path class="cls-3" d="M73.22,588c184.67-32,228.17-153.89,228.17-153.89,15.87-44.94,18.07-82.68,14.68-112.22-5.61-48.88-37.64-94.76-83.41-118.12-26.3-13.42-48.2-15.18-68-14.32-45.33,2-83.13,38.69-83.13,38.69-46.09,50.65-29.47,98.49-29.47,98.49,20.5,58.27,63.73,65,63.73,65-49.34-53.67-23.46-95.73,1.48-119,26.74-25,73-19.28,98.13,13.51q1.26,1.65,2.46,3.33A104.52,104.52,0,0,1,237.25,355c-.84,16.83-12,51-21.53,69.67,0,0-69,125.85-152.51,157.82,0,0-1.42,5.6-18.67,9.1Z" transform="translate(-44.04 -38.5)"/><path class="cls-1" d="M227.94,398.82" transform="translate(-44.04 -38.5)"/></g><g id="Capa_3" data-name="Capa 3"><path class="cls-3" d="M120.32,65.82S56.05,97,155.29,96.07c0,0-108.69,24.57-16.07,49.14,0,0,48.2,7.56,90.73,0,0,0,111.53-20.79-19.84-44.42,0,0,113.41-64.27,14.17-59.54C224.28,41.25,140.77,47.69,120.32,65.82Z" transform="translate(-44.04 -38.5)"/></g></svg>